<?xml version="1.0" encoding="UTF-8" standalone="no" ?>
<!DOCTYPE svg PUBLIC "-//W3C//DTD SVG 1.1//EN" "http://www.w3.org/Graphics/SVG/1.1/DTD/svg11.dtd">
<svg xmlns="http://www.w3.org/2000/svg" xmlns:xlink="http://www.w3.org/1999/xlink" version="1.1" width="1080" height="1080" viewBox="0 0 1080 1080" xml:space="preserve">
<desc>Created with Fabric.js 5.2.4</desc>
<defs>
</defs>
<g transform="matrix(1 0 0 1 540 540)" id="17451d0c-3267-477b-b383-620916284024"  >
<rect style="stroke: none; stroke-width: 1; stroke-dasharray: none; stroke-linecap: butt; stroke-dashoffset: 0; stroke-linejoin: miter; stroke-miterlimit: 4; fill: rgb(255,255,255); fill-rule: nonzero; opacity: 1; visibility: hidden;" vector-effect="non-scaling-stroke"  x="-540" y="-540" rx="0" ry="0" width="1080" height="1080" />
</g>
<g transform="matrix(1 0 0 1 540 540)" id="81c6cd23-91e6-4464-a61b-e573437bfa33"  >
</g>
<g transform="matrix(0.78 0 0 0.78 725.87 658.94)" id="56314878-b763-4df2-8634-4ada735f712b"  >
<path style="stroke: rgb(255,255,255); stroke-width: 50; stroke-dasharray: none; stroke-linecap: butt; stroke-dashoffset: 0; stroke-linejoin: miter; stroke-miterlimit: 4; fill: rgb(255,255,255); fill-rule: nonzero; opacity: 1;" vector-effect="non-scaling-stroke"  transform=" translate(-6400.18, -6399.85)" d="M 6025 12789 C 5629 12766 5203 12700 4825 12603 C 3472 12258 2276 11484 1398 10387 C 338 9061 -149 7376 41 5685 C 230 4002 1078 2471 2416 1398 C 3261 721 4267 270 5335 90 C 7131 -214 8971 264 10390 1401 C 12214 2864 13097 5171 12710 7467 C 12271 10073 10236 12165 7640 12679 C 7129 12780 6546 12820 6025 12789 z M 6150 11005 L 6150 9730 L 6033 9730 C 5711 9730 5046 9787 4615 9850 C 4397 9882 4163 9924 4155 9932 C 4142 9945 4313 10355 4435 10605 C 4881 11514 5452 12097 6055 12260 C 6094 12270 6131 12279 6138 12279 C 6147 12280 6150 12019 6150 11005 z M 6830 12233 C 7391 12047 7936 11473 8354 10627 C 8483 10364 8659 9945 8645 9932 C 8637 9924 8403 9882 8185 9850 C 7752 9786 7090 9731 6763 9730 L 6650 9730 L 6650 11005 L 6650 12281 L 6688 12274 C 6708 12271 6772 12252 6830 12233 z M 4741 11968 C 4322 11505 3977 10912 3705 10188 C 3661 10070 3648 10046 3633 10048 C 3519 10067 3068 10212 2845 10302 C 2630 10389 2260 10577 2260 10599 C 2260 10613 2450 10791 2590 10910 C 3085 11328 3631 11655 4230 11892 C 4415 11966 4809 12098 4848 12099 C 4855 12100 4807 12040 4741 11968 z M 8107 12054 C 8892 11811 9559 11451 10180 10934 C 10329 10810 10540 10614 10540 10600 C 10540 10578 10211 10409 9984 10315 C 9762 10222 9297 10071 9167 10048 C 9152 10046 9139 10070 9096 10185 C 8813 10937 8451 11551 8015 12018 C 7973 12063 7943 12100 7949 12100 C 7955 12100 8026 12079 8107 12054 z M 2013 10166 C 2350 9956 2837 9754 3345 9615 C 3422 9594 3488 9574 3492 9570 C 3496 9567 3491 9533 3480 9495 C 3308 8905 3171 8107 3115 7375 C 3100 7179 3080 6791 3080 6698 L 3080 6650 L 1789 6650 L 497 6650 L 504 6763 C 573 7874 957 8947 1613 9855 C 1691 9963 1901 10230 1908 10230 C 1910 10230 1958 10201 2013 10166 z M 11002 10098 C 11540 9428 11923 8657 12130 7831 C 12215 7492 12274 7110 12296 6758 L 12302 6650 L 11011 6650 L 9720 6650 L 9720 6693 C 9720 6771 9700 7173 9690 7315 C 9634 8065 9515 8786 9341 9420 C 9319 9500 9304 9567 9308 9571 C 9312 9574 9378 9594 9455 9615 C 9973 9757 10481 9970 10815 10184 C 10854 10209 10887 10230 10890 10230 C 10893 10230 10943 10170 11002 10098 z M 4190 9421 C 4743 9322 5544 9241 5980 9240 C 6032 9240 6092 9237 6113 9234 L 6150 9227 L 6150 7939 L 6150 6650 L 4859 6650 L 3568 6650 L 3574 6758 C 3577 6817 3582 6921 3585 6990 C 3620 7769 3755 8617 3957 9333 C 3986 9436 3996 9459 4009 9456 C 4018 9453 4099 9437 4190 9421 z M 8843 9333 C 9044 8624 9182 7747 9215 6980 C 9218 6906 9223 6801 9226 6748 L 9232 6650 L 7941 6650 L 6650 6650 L 6650 7939 L 6650 9228 L 6681 9234 C 6698 9237 6758 9240 6814 9240 C 7314 9240 8278 9346 8801 9459 C 8804 9459 8823 9403 8843 9333 z M 3080 6103 C 3080 6009 3100 5621 3115 5425 C 3171 4697 3305 3914 3476 3317 C 3490 3269 3500 3227 3498 3226 C 3497 3224 3428 3204 3345 3180 C 2838 3037 2375 2843 2055 2641 C 2000 2606 1947 2573 1937 2566 C 1923 2557 1916 2559 1902 2576 C 1537 3024 1335 3330 1115 3770 C 1007 3987 981 4045 896 4263 C 676 4824 541 5435 504 6038 L 497 6150 L 1789 6150 L 3080 6150 L 3080 6103 z M 6150 4861 L 6150 3573 L 6113 3566 C 6092 3563 6032 3560 5980 3560 C 5668 3560 4996 3502 4565 3439 C 4428 3419 4060 3355 4016 3344 C 3994 3339 3991 3346 3957 3467 C 3756 4177 3620 5037 3585 5815 C 3582 5887 3577 5991 3574 6048 L 3568 6150 L 4859 6150 L 6150 6150 L 6150 4861 z M 9226 6053 C 9223 5999 9218 5894 9215 5820 C 9182 5054 9045 4182 8843 3467 C 8809 3346 8806 3339 8784 3344 C 8740 3355 8372 3419 8235 3439 C 7804 3502 7132 3560 6820 3560 C 6768 3560 6708 3563 6688 3566 L 6650 3573 L 6650 4861 L 6650 6150 L 7941 6150 L 9232 6150 L 9226 6053 z M 12296 6038 C 12233 5012 11898 4015 11325 3145 C 11191 2942 10909 2572 10880 2562 C 10875 2560 10845 2576 10813 2598 C 10489 2816 10000 3026 9455 3180 C 9373 3204 9303 3224 9302 3226 C 9300 3227 9310 3268 9323 3317 C 9496 3918 9627 4681 9684 5420 C 9699 5601 9720 6010 9720 6108 L 9720 6150 L 11011 6150 L 12303 6150 L 12296 6038 z M 6150 1795 L 6150 519 L 6113 526 C 5994 547 5769 641 5625 730 C 5444 841 5218 1039 5050 1235 C 4772 1560 4507 2003 4295 2500 C 4226 2662 4149 2862 4154 2867 C 4160 2873 4399 2916 4580 2944 C 5016 3011 5632 3065 6003 3069 L 6150 3070 L 6150 1795 z M 7056 3060 C 7530 3033 7980 2985 8367 2920 C 8584 2883 8650 2871 8650 2866 C 8650 2859 8555 2616 8520 2535 C 8167 1707 7725 1097 7242 773 C 7078 663 6832 554 6683 525 L 6650 518 L 6650 1794 L 6650 3070 L 6764 3070 C 6827 3070 6958 3065 7056 3060 z M 3694 2642 C 3835 2256 4040 1828 4241 1502 C 4404 1238 4559 1031 4755 816 C 4882 677 4893 681 4614 771 C 3907 1000 3290 1330 2724 1781 C 2538 1929 2270 2171 2270 2189 C 2270 2199 2396 2274 2535 2346 C 2682 2422 2887 2510 3080 2580 C 3239 2637 3603 2748 3635 2749 C 3652 2750 3662 2731 3694 2642 z M 9360 2695 C 9681 2601 9928 2509 10182 2387 C 10289 2336 10510 2213 10529 2194 C 10536 2187 10475 2127 10334 2000 C 9679 1412 8895 976 8054 730 C 7998 713 7949 700 7945 700 C 7941 700 7980 746 8032 802 C 8268 1059 8441 1296 8630 1620 C 8786 1888 8981 2305 9096 2617 C 9127 2700 9150 2750 9159 2750 C 9167 2750 9257 2725 9360 2695 z" stroke-linecap="round" />
</g>
</svg>